{
  "accessors": [
    {
      "bufferView": 2,
      "componentType": 5126,
      "count": 65532,
      "max": [
        26.941043853759766,
        13.128406524658203,
        15.871772766113281
      ],
      "min": [
        -18.88754653930664,
        -10.794221878051758,
        1.082250952720642
      ],
      "type": "VEC3"
    },
    {
      "bufferView": 2,
      "byteOffset": 786384,
      "componentType": 5126,
      "count": 65532,
      "max": [
        1.0,
        0.9999997615814209,
        0.9999998807907104
      ],
      "min": [
        -0.9999994039535522,
        -0.9999998807907104,
        -1.0
      ],
      "type": "VEC3"
    },
    {
      "bufferView": 3,
      "componentType": 5126,
      "count": 65532,
      "max": [
        0.9999996423721313,
        0.9999990463256836,
        0.9999997019767761,
        1.0
      ],
      "min": [
        -0.9999991059303284,
        -0.9999989867210388,
        -0.9999961256980896,
        -1.0
      ],
      "type": "VEC4"
    },
    {
      "bufferView": 1,
      "componentType": 5126,
      "count": 65532,
      "max": [
        0.9999920129776001,
        0.9998589754104614
      ],
      "min": [
        0.001636000000871718,
        0.0006220000213943422
      ],
      "type": "VEC2"
    },
    {
      "bufferView": 0,
      "componentType": 5125,
      "count": 337983,
      "type": "SCALAR"
    },
    {
      "bufferView": 2,
      "byteOffset": 1572768,
      "componentType": 5126,
      "count": 65532,
      "max": [
        26.457027435302734,
        18.273845672607422,
        10.862934112548828
      ],
      "min": [
        4.073482990264893,
        -10.824480056762695,
        0.8968849778175354
      ],
      "type": "VEC3"
    },
    {
      "bufferView": 2,
      "byteOffset": 2359152,
      "componentType": 5126,
      "count": 65532,
      "max": [
        0.9999997615814209,
        1.0,
        0.9999998807907104
      ],
      "min": [
        -0.9999995231628418,
        -0.9999994039535522,
        -0.9999978542327881
      ],
      "type": "VEC3"
    },
    {
      "bufferView": 3,
      "byteOffset": 1048512,
      "componentType": 5126,
      "count": 65532,
      "max": [
        0.9999976754188538,
        0.9999998211860657,
        0.999984860420227,
        1.0
      ],
      "min": [
        -0.9999995827674866,
        -0.999996542930603,
        -0.9999992251396179,
        -1.0
      ],
      "type": "VEC4"
    },
    {
      "bufferView": 1,
      "byteOffset": 524256,
      "componentType": 5126,
      "count": 65532,
      "max": [
        0.9999960064888,
        0.9999639987945557
      ],
      "min": [
        1.4000000192027073e-05,
        4.3000000005122274e-05
      ],
      "type": "VEC2"
    },
    {
      "bufferView": 0,
      "byteOffset": 1351932,
      "componentType": 5125,
      "count": 329382,
      "type": "SCALAR"
    },
    {
      "bufferView": 2,
      "byteOffset": 3145536,
      "componentType": 5126,
      "count": 65532,
      "max": [
        11.539860725402832,
        16.841129302978516,
        10.872802734375
      ],
      "min": [
        -6.9327239990234375,
        -10.707932472229004,
        1.8899799585342407
      ],
      "type": "VEC3"
    },
    {
      "bufferView": 2,
      "byteOffset": 3931920,
      "componentType": 5126,
      "count": 65532,
      "max": [
        0.999998927116394,
        0.9999995231628418,
        1.0
      ],
      "min": [
        -0.9999992847442627,
        -1.0,
        -0.9999998807907104
      ],
      "type": "VEC3"
    },
    {
      "bufferView": 3,
      "byteOffset": 2097024,
      "componentType": 5126,
      "count": 65532,
      "max": [
        0.999999463558197,
        0.9999751448631287,
        0.9999993443489075,
        1.0
      ],
      "min": [
        -0.9999982118606567,
        -0.9999959468841553,
        -0.9999711513519287,
        -1.0
      ],
      "type": "VEC4"
    },
    {
      "bufferView": 1,
      "byteOffset": 1048512,
      "componentType": 5126,
      "count": 65532,
      "max": [
        0.9999529719352722,
        0.9999169707298279
      ],
      "min": [
        3.000000106112566e-06,
        7.999999797903001e-05
      ],
      "type": "VEC2"
    },
    {
      "bufferView": 0,
      "byteOffset": 2669460,
      "componentType": 5125,
      "count": 322746,
      "type": "SCALAR"
    },
    {
      "bufferView": 2,
      "byteOffset": 4718304,
      "componentType": 5126,
      "count": 65532,
      "max": [
        11.36413860321045,
        19.460866928100586,
        10.833332061767578
      ],
      "min": [
        -17.28202247619629,
        -10.786866188049316,
        1.5421329736709595
      ],
      "type": "VEC3"
    },
    {
      "bufferView": 2,
      "byteOffset": 5504688,
      "componentType": 5126,
      "count": 65532,
      "max": [
        0.9999959468841553,
        0.9999988079071045,
        1.0
      ],
      "min": [
        -0.9999942779541016,
        -0.9999996423721313,
        -0.9999984502792358
      ],
      "type": "VEC3"
    },
    {
      "bufferView": 3,
      "byteOffset": 3145536,
      "componentType": 5126,
      "count": 65532,
      "max": [
        0.9999998211860657,
        0.9999997615814209,
        0.9999954104423523,
        1.0
      ],
      "min": [
        -0.9999982118606567,
        -1.0,
        -0.999971866607666,
        -1.0
      ],
      "type": "VEC4"
    },
    {
      "bufferView": 1,
      "byteOffset": 1572768,
      "componentType": 5126,
      "count": 65532,
      "max": [
        0.9999949932098389,
        0.9999920129776001
      ],
      "min": [
        6.000000212225132e-06,
        2.8000000384054147e-05
      ],
      "type": "VEC2"
    },
    {
      "bufferView": 0,
      "byteOffset": 3960444,
      "componentType": 5125,
      "count": 322149,
      "type": "SCALAR"
    },
    {
      "bufferView": 2,
      "byteOffset": 6291072,
      "componentType": 5126,
      "count": 65532,
      "max": [
        0.5028989911079407,
        21.339508056640625,
        10.790515899658203
      ],
      "min": [
        -18.892894744873047,
        -9.604762077331543,
        1.3484359979629517
      ],
      "type": "VEC3"
    },
    {
      "bufferView": 2,
      "byteOffset": 7077456,
      "componentType": 5126,
      "count": 65532,
      "max": [
        0.9999997615814209,
        0.9999998807907104,
        1.0
      ],
      "min": [
        -0.9999997615814209,
        -1.0,
        -0.9999988079071045
      ],
      "type": "VEC3"
    },
    {
      "bufferView": 3,
      "byteOffset": 4194048,
      "componentType": 5126,
      "count": 65532,
      "max": [
        0.9999971985816956,
        0.9999997615814209,
        0.9999935626983643,
        1.0
      ],
      "min": [
        -0.9999995827674866,
        -0.9999996423721313,
        -0.9999994039535522,
        -1.0
      ],
      "type": "VEC4"
    },
    {
      "bufferView": 1,
      "byteOffset": 2097024,
      "componentType": 5126,
      "count": 65532,
      "max": [
        0.9999960064888,
        0.9999290108680725
      ],
      "min": [
        3.400000059627928e-05,
        9.999999747378752e-06
      ],
      "type": "VEC2"
    },
    {
      "bufferView": 0,
      "byteOffset": 5249040,
      "componentType": 5125,
      "count": 318081,
      "type": "SCALAR"
    },
    {
      "bufferView": 2,
      "byteOffset": 7863840,
      "componentType": 5126,
      "count": 65532,
      "max": [
        -9.595024108886719,
        21.542612075805664,
        19.564380645751953
      ],
      "min": [
        -23.568410873413086,
        -10.808384895324707,
        1.1003040075302124
      ],
      "type": "VEC3"
    },
    {
      "bufferView": 2,
      "byteOffset": 8650224,
      "componentType": 5126,
      "count": 65532,
      "max": [
        0.9999997615814209,
        0.9999983310699463,
        1.0
      ],
      "min": [
        -1.0,
        -1.0,
        -0.9999960660934448
      ],
      "type": "VEC3"
    },
    {
      "bufferView": 3,
      "byteOffset": 5242560,
      "componentType": 5126,
      "count": 65532,
      "max": [
        0.9999988675117493,
        0.9999963045120239,
        1.0,
        1.0
      ],
      "min": [
        -0.9999969601631165,
        -0.9999978542327881,
        -0.9999850392341614,
        -1.0
      ],
      "type": "VEC4"
    },
    {
      "bufferView": 1,
      "byteOffset": 2621280,
      "componentType": 5126,
      "count": 65532,
      "max": [
        0.9998270273208618,
        0.9999139904975891
      ],
      "min": [
        0.00016999999934341758,
        1.9999999949504854e-06
      ],
      "type": "VEC2"
    },
    {
      "bufferView": 0,
      "byteOffset": 6521364,
      "componentType": 5125,
      "count": 325536,
      "type": "SCALAR"
    },
    {
      "bufferView": 2,
      "byteOffset": 9436608,
      "componentType": 5126,
      "count": 65532,
      "max": [
        26.67375946044922,
        21.7878360748291,
        15.686229705810547
      ],
      "min": [
        -23.506134033203125,
        -10.7916259765625,
        0.9307960271835327
      ],
      "type": "VEC3"
    },
    {
      "bufferView": 2,
      "byteOffset": 10222992,
      "componentType": 5126,
      "count": 65532,
      "max": [
        0.9999998807907104,
        0.9999990463256836,
        1.0
      ],
      "min": [
        -0.9999997615814209,
        -0.9999979734420776,
        -0.9999958276748657
      ],
      "type": "VEC3"
    },
    {
      "bufferView": 3,
      "byteOffset": 6291072,
      "componentType": 5126,
      "count": 65532,
      "max": [
        0.999999463558197,
        0.9999990463256836,
        0.9999994039535522,
        1.0
      ],
      "min": [
        -0.9999991059303284,
        -0.9999944567680359,
        -0.9999943971633911,
        -1.0
      ],
      "type": "VEC4"
    },
    {
      "bufferView": 1,
      "byteOffset": 3145536,
      "componentType": 5126,
      "count": 65532,
      "max": [
        0.9999899864196777,
        0.999970018863678
      ],
      "min": [
        1.9999999949504854e-06,
        6.0999998822808266e-05
      ],
      "type": "VEC2"
    },
    {
      "bufferView": 0,
      "byteOffset": 7823508,
      "componentType": 5125,
      "count": 270858,
      "type": "SCALAR"
    },
    {
      "bufferView": 2,
      "byteOffset": 11009376,
      "componentType": 5126,
      "count": 65533,
      "max": [
        -10.325904846191406,
        21.955463409423828,
        21.596363067626953
      ],
      "min": [
        -24.40157699584961,
        -7.519546031951904,
        0.9166769981384277
      ],
      "type": "VEC3"
    },
    {
      "bufferView": 2,
      "byteOffset": 11795772,
      "componentType": 5126,
      "count": 65533,
      "max": [
        0.999957799911499,
        0.999975323677063,
        0.9999998807907104
      ],
      "min": [
        -0.9999997615814209,
        -0.9999939203262329,
        -0.9999406337738037
      ],
      "type": "VEC3"
    },
    {
      "bufferView": 3,
      "byteOffset": 7339584,
      "componentType": 5126,
      "count": 65533,
      "max": [
        0.999998927116394,
        0.9999743103981018,
        0.999991238117218,
        1.0
      ],
      "min": [
        -0.9999961256980896,
        -0.9999892115592957,
        -0.9999790787696838,
        -1.0
      ],
      "type": "VEC4"
    },
    {
      "bufferView": 1,
      "byteOffset": 3669792,
      "componentType": 5126,
      "count": 65533,
      "max": [
        0.9999790191650391,
        0.9999989867210388
      ],
      "min": [
        2.700000004551839e-05,
        5.0999999075429514e-05
      ],
      "type": "VEC2"
    },
    {
      "bufferView": 0,
      "byteOffset": 8906940,
      "componentType": 5125,
      "count": 312462,
      "type": "SCALAR"
    },
    {
      "bufferView": 2,
      "byteOffset": 12582168,
      "componentType": 5126,
      "count": 65532,
      "max": [
        11.322054862976074,
        21.4788818359375,
        20.508094787597656
      ],
      "min": [
        -23.500389099121094,
        -10.767586708068848,
        1.2706259489059448
      ],
      "type": "VEC3"
    },
    {
      "bufferView": 2,
      "byteOffset": 13368552,
      "componentType": 5126,
      "count": 65532,
      "max": [
        0.9999972581863403,
        0.9999903440475464,
        0.9999996423721313
      ],
      "min": [
        -0.9999997615814209,
        -1.0,
        -0.9999988079071045
      ],
      "type": "VEC3"
    },
    {
      "bufferView": 3,
      "byteOffset": 8388112,
      "componentType": 5126,
      "count": 65532,
      "max": [
        0.999998927116394,
        0.9999961256980896,
        0.9999976754188538,
        1.0
      ],
      "min": [
        -0.9999931454658508,
        -0.9999986886978149,
        -0.9999924898147583,
        -1.0
      ],
      "type": "VEC4"
    },
    {
      "bufferView": 1,
      "byteOffset": 4194056,
      "componentType": 5126,
      "count": 65532,
      "max": [
        0.9999989867210388,
        0.9999909996986389
      ],
      "min": [
        9.999999974752427e-07,
        2.2000000171829015e-05
      ],
      "type": "VEC2"
    },
    {
      "bufferView": 0,
      "byteOffset": 10156788,
      "componentType": 5125,
      "count": 272574,
      "type": "SCALAR"
    },
    {
      "bufferView": 2,
      "byteOffset": 14154936,
      "componentType": 5126,
      "count": 6887,
      "max": [
        11.160553932189941,
        10.4537935256958,
        10.872802734375
      ],
      "min": [
        0.5656930208206177,
        -10.830764770507813,
        1.9620929956436157
      ],
      "type": "VEC3"
    },
    {
      "bufferView": 2,
      "byteOffset": 14237580,
      "componentType": 5126,
      "count": 6887,
      "max": [
        0.9999586343765259,
        0.9998173117637634,
        0.999997615814209
      ],
      "min": [
        -0.9999792575836182,
        -0.9999828338623047,
        -0.9999953508377075
      ],
      "type": "VEC3"
    },
    {
      "bufferView": 3,
      "byteOffset": 9436624,
      "componentType": 5126,
      "count": 6887,
      "max": [
        0.9999997615814209,
        0.9999940991401672,
        0.9999670386314392,
        1.0
      ],
      "min": [
        -0.999779462814331,
        -0.9998592138290405,
        -0.9999724626541138,
        -1.0
      ],
      "type": "VEC4"
    },
    {
      "bufferView": 1,
      "byteOffset": 4718312,
      "componentType": 5126,
      "count": 6887,
      "max": [
        0.9994840025901794,
        0.999970018863678
      ],
      "min": [
        3.300000025774352e-05,
        4.8999998398358e-05
      ],
      "type": "VEC2"
    },
    {
      "bufferView": 0,
      "byteOffset": 11247084,
      "componentType": 5125,
      "count": 24795,
      "type": "SCALAR"
    },
    {
      "bufferView": 2,
      "byteOffset": 14320224,
      "componentType": 5126,
      "count": 8575,
      "max": [
        27.005393981933594,
        21.96151351928711,
        3.0260679721832275
      ],
      "min": [
        -24.40604019165039,
        -10.860950469970703,
        0.12312500178813934
      ],
      "type": "VEC3"
    },
    {
      "bufferView": 2,
      "byteOffset": 14423124,
      "componentType": 5126,
      "count": 8575,
      "max": [
        0.9999520778656006,
        0.9999922513961792,
        1.0
      ],
      "min": [
        -0.9999624490737915,
        -0.9999948740005493,
        -1.0
      ],
      "type": "VEC3"
    },
    {
      "bufferView": 1,
      "byteOffset": 4773408,
      "componentType": 5126,
      "count": 8575,
      "max": [
        0.978410005569458,
        0.9932870268821716
      ],
      "min": [
        0.05952899903059006,
        0.041402000933885574
      ],
      "type": "VEC2"
    },
    {
      "bufferView": 0,
      "byteOffset": 11346264,
      "componentType": 5125,
      "count": 18777,
      "type": "SCALAR"
    }
  ],
  "asset": {
    "extras": {
      "author": "Lassi Kaukonen (https://sketchfab.com/thesidekick)",
      "license": "CC-BY-4.0 (http://creativecommons.org/licenses/by/4.0/)",
      "source": "https://sketchfab.com/3d-models/destroyed-warehouse-in-kaarina-finland-12d2dfd3d2cb4c8e80f3f223c649be32",
      "title": "Destroyed Warehouse In Kaarina, Finland"
    },
    "generator": "Sketchfab-13.57.0",
    "version": "2.0"
  },
  "bufferViews": [
    {
      "buffer": 0,
      "byteLength": 11421372,
      "name": "floatBufferViews",
      "target": 34963
    },
    {
      "buffer": 0,
      "byteLength": 4842008,
      "byteOffset": 11421372,
      "byteStride": 8,
      "name": "floatBufferViews",
      "target": 34962
    },
    {
      "buffer": 0,
      "byteLength": 14526024,
      "byteOffset": 16263380,
      "byteStride": 12,
      "name": "floatBufferViews",
      "target": 34962
    },
    {
      "buffer": 0,
      "byteLength": 9546816,
      "byteOffset": 30789404,
      "byteStride": 16,
      "name": "floatBufferViews",
      "target": 34962
    }
  ],
  "buffers": [
    {
      "byteLength": 40336220,
      "uri": "scene.bin"
    }
  ],
  "images": [
    {
      "uri": "textures/Destroyed_warehouse_in_Kaarina_finland_baseColor.jpeg"
    },
    {
      "uri": "textures/Destroyed_warehouse_in_Kaarina_finland_metallicRoughness.png"
    },
    {
      "uri": "textures/Destroyed_warehouse_in_Kaarina_finland_normal.png"
    }
  ],
  "materials": [
    {
      "doubleSided": true,
      "name": "Base",
      "pbrMetallicRoughness": {
        "baseColorFactor": [
          0.02523109556143409,
          0.02523109556143409,
          0.02523109556143409,
          1.0
        ],
        "metallicFactor": 0.0
      }
    },
    {
      "doubleSided": true,
      "name": "Destroyed_warehouse_in_Kaarina_finland",
      "normalTexture": {
        "index": 2
      },
      "occlusionTexture": {
        "index": 1
      },
      "pbrMetallicRoughness": {
        "baseColorTexture": {
          "index": 0
        },
        "metallicFactor": 0.0,
        "metallicRoughnessTexture": {
          "index": 1
        }
      }
    }
  ],
  "meshes": [
    {
      "name": "Object_0",
      "primitives": [
        {
          "attributes": {
            "NORMAL": 1,
            "POSITION": 0,
            "TANGENT": 2,
            "TEXCOORD_0": 3
          },
          "indices": 4,
          "material": 1,
          "mode": 4
        }
      ]
    },
    {
      "name": "Object_1",
      "primitives": [
        {
          "attributes": {
            "NORMAL": 6,
            "POSITION": 5,
            "TANGENT": 7,
            "TEXCOORD_0": 8
          },
          "indices": 9,
          "material": 1,
          "mode": 4
        }
      ]
    },
    {
      "name": "Object_2",
      "primitives": [
        {
          "attributes": {
            "NORMAL": 11,
            "POSITION": 10,
            "TANGENT": 12,
            "TEXCOORD_0": 13
          },
          "indices": 14,
          "material": 1,
          "mode": 4
        }
      ]
    },
    {
      "name": "Object_3",
      "primitives": [
        {
          "attributes": {
            "NORMAL": 16,
            "POSITION": 15,
            "TANGENT": 17,
            "TEXCOORD_0": 18
          },
          "indices": 19,
          "material": 1,
          "mode": 4
        }
      ]
    },
    {
      "name": "Object_4",
      "primitives": [
        {
          "attributes": {
            "NORMAL": 21,
            "POSITION": 20,
            "TANGENT": 22,
            "TEXCOORD_0": 23
          },
          "indices": 24,
          "material": 1,
          "mode": 4
        }
      ]
    },
    {
      "name": "Object_5",
      "primitives": [
        {
          "attributes": {
            "NORMAL": 26,
            "POSITION": 25,
            "TANGENT": 27,
            "TEXCOORD_0": 28
          },
          "indices": 29,
          "material": 1,
          "mode": 4
        }
      ]
    },
    {
      "name": "Object_6",
      "primitives": [
        {
          "attributes": {
            "NORMAL": 31,
            "POSITION": 30,
            "TANGENT": 32,
            "TEXCOORD_0": 33
          },
          "indices": 34,
          "material": 1,
          "mode": 4
        }
      ]
    },
    {
      "name": "Object_7",
      "primitives": [
        {
          "attributes": {
            "NORMAL": 36,
            "POSITION": 35,
            "TANGENT": 37,
            "TEXCOORD_0": 38
          },
          "indices": 39,
          "material": 1,
          "mode": 4
        }
      ]
    },
    {
      "name": "Object_8",
      "primitives": [
        {
          "attributes": {
            "NORMAL": 41,
            "POSITION": 40,
            "TANGENT": 42,
            "TEXCOORD_0": 43
          },
          "indices": 44,
          "material": 1,
          "mode": 4
        }
      ]
    },
    {
      "name": "Object_9",
      "primitives": [
        {
          "attributes": {
            "NORMAL": 46,
            "POSITION": 45,
            "TANGENT": 47,
            "TEXCOORD_0": 48
          },
          "indices": 49,
          "material": 1,
          "mode": 4
        }
      ]
    },
    {
      "name": "Object_10",
      "primitives": [
        {
          "attributes": {
            "NORMAL": 51,
            "POSITION": 50,
            "TEXCOORD_0": 52
          },
          "indices": 53,
          "material": 0,
          "mode": 4
        }
      ]
    }
  ],
  "nodes": [
    {
      "children": [
        1
      ],
      "matrix": [
        1.0,
        0.0,
        0.0,
        0.0,
        0.0,
        2.220446049250313e-16,
        -1.0,
        0.0,
        0.0,
        1.0,
        2.220446049250313e-16,
        0.0,
        0.0,
        0.0,
        0.0,
        1.0
      ],
      "name": "Sketchfab_model"
    },
    {
      "children": [
        2,
        3,
        4,
        5,
        6,
        7,
        8,
        9,
        10,
        11,
        12
      ],
      "name": "Destroyed_warehouse_in_Kaarina_Finland_SF.obj.cleaner.materialmerger.gles"
    },
    {
      "mesh": 0,
      "name": "Object_2"
    },
    {
      "mesh": 1,
      "name": "Object_3"
    },
    {
      "mesh": 2,
      "name": "Object_4"
    },
    {
      "mesh": 3,
      "name": "Object_5"
    },
    {
      "mesh": 4,
      "name": "Object_6"
    },
    {
      "mesh": 5,
      "name": "Object_7"
    },
    {
      "mesh": 6,
      "name": "Object_8"
    },
    {
      "mesh": 7,
      "name": "Object_9"
    },
    {
      "mesh": 8,
      "name": "Object_10"
    },
    {
      "mesh": 9,
      "name": "Object_11"
    },
    {
      "mesh": 10,
      "name": "Object_12"
    }
  ],
  "samplers": [
    {
      "magFilter": 9729,
      "minFilter": 9987,
      "wrapS": 10497,
      "wrapT": 10497
    }
  ],
  "scene": 0,
  "scenes": [
    {
      "name": "Sketchfab_Scene",
      "nodes": [
        0
      ]
    }
  ],
  "textures": [
    {
      "sampler": 0,
      "source": 0
    },
    {
      "sampler": 0,
      "source": 1
    },
    {
      "sampler": 0,
      "source": 2
    }
  ]
}
