{
  "accessors": [
    {
      "bufferView": 2,
      "componentType": 5126,
      "count": 1058,
      "max": [
        17.637819290161133,
        10.099781036376953,
        3.169919967651367
      ],
      "min": [
        -3.163815975189209,
        -1.122257947921753,
        -8.842117309570313
      ],
      "type": "VEC3"
    },
    {
      "bufferView": 2,
      "byteOffset": 12696,
      "componentType": 5126,
      "count": 1058,
      "max": [
        0.9842267632484436,
        0.9992589950561523,
        0.9932906627655029
      ],
      "min": [
        -0.9841440916061401,
        -0.9969322681427002,
        -0.9931077361106873
      ],
      "type": "VEC3"
    },
    {
      "bufferView": 3,
      "componentType": 5126,
      "count": 1058,
      "max": [
        0.9949624538421631,
        0.992068350315094,
        0.9996774792671204,
        1.0
      ],
      "min": [
        -0.9979602694511414,
        -0.9993882775306702,
        -0.9983247518539429,
        1.0
      ],
      "type": "VEC4"
    },
    {
      "bufferView": 1,
      "componentType": 5126,
      "count": 1058,
      "max": [
        0.18457700312137604,
        0.9999290108680725
      ],
      "min": [
        7.100000220816582e-05,
        7.100000220816582e-05
      ],
      "type": "VEC2"
    },
    {
      "bufferView": 0,
      "componentType": 5125,
      "count": 5136,
      "type": "SCALAR"
    },
    {
      "bufferView": 2,
      "byteOffset": 25392,
      "componentType": 5126,
      "count": 2187,
      "max": [
        8.413686752319336,
        8.413657188415527,
        0.9999970197677612
      ],
      "min": [
        -8.4136323928833,
        -8.41366195678711,
        -45.94363784790039
      ],
      "type": "VEC3"
    },
    {
      "bufferView": 2,
      "byteOffset": 51636,
      "componentType": 5126,
      "count": 2187,
      "max": [
        1.0,
        1.0,
        1.0
      ],
      "min": [
        -1.0,
        -1.0,
        -1.0
      ],
      "type": "VEC3"
    },
    {
      "bufferView": 3,
      "byteOffset": 16928,
      "componentType": 5126,
      "count": 2187,
      "max": [
        1.0,
        1.0,
        1.0,
        1.0
      ],
      "min": [
        -1.0,
        -1.0,
        -1.0,
        1.0
      ],
      "type": "VEC4"
    },
    {
      "bufferView": 1,
      "byteOffset": 8464,
      "componentType": 5126,
      "count": 2187,
      "max": [
        0.6287800073623657,
        0.9997469782829285
      ],
      "min": [
        0.0002530000056140125,
        0.0002530000056140125
      ],
      "type": "VEC2"
    },
    {
      "bufferView": 0,
      "byteOffset": 20544,
      "componentType": 5125,
      "count": 6636,
      "type": "SCALAR"
    },
    {
      "bufferView": 2,
      "byteOffset": 77880,
      "componentType": 5126,
      "count": 1040,
      "max": [
        1.2605400085449219,
        1.2605359554290771,
        1.1827609539031982
      ],
      "min": [
        -1.260543942451477,
        -1.260537028312683,
        -8.143559455871582
      ],
      "type": "VEC3"
    },
    {
      "bufferView": 2,
      "byteOffset": 90360,
      "componentType": 5126,
      "count": 1040,
      "max": [
        1.0,
        1.0,
        1.0
      ],
      "min": [
        -1.0,
        -1.0,
        -1.0
      ],
      "type": "VEC3"
    },
    {
      "bufferView": 3,
      "byteOffset": 51920,
      "componentType": 5126,
      "count": 1040,
      "max": [
        0.7730947136878967,
        0.995188295841217,
        1.0,
        1.0
      ],
      "min": [
        -0.9569647908210754,
        -0.9952079057693481,
        -1.0,
        1.0
      ],
      "type": "VEC4"
    },
    {
      "bufferView": 1,
      "byteOffset": 25960,
      "componentType": 5126,
      "count": 1040,
      "max": [
        0.9646620154380798,
        0.9850320219993591
      ],
      "min": [
        0.00028700000257231295,
        0.00028700000257231295
      ],
      "type": "VEC2"
    },
    {
      "bufferView": 0,
      "byteOffset": 47088,
      "componentType": 5125,
      "count": 3048,
      "type": "SCALAR"
    },
    {
      "bufferView": 2,
      "byteOffset": 102840,
      "componentType": 5126,
      "count": 427,
      "max": [
        0.6726589798927307,
        0.029999999329447746,
        2.030424118041992
      ],
      "min": [
        -0.6726580262184143,
        -0.029999999329447746,
        0.004993000067770481
      ],
      "type": "VEC3"
    },
    {
      "bufferView": 2,
      "byteOffset": 107964,
      "componentType": 5126,
      "count": 427,
      "max": [
        0.9999989867210388,
        1.0,
        0.9984511137008667
      ],
      "min": [
        -0.9999989867210388,
        -1.0,
        -0.9984461069107056
      ],
      "type": "VEC3"
    },
    {
      "bufferView": 3,
      "byteOffset": 68560,
      "componentType": 5126,
      "count": 427,
      "max": [
        0.999999463558197,
        0.9999992847442627,
        0.9962466359138489,
        1.0
      ],
      "min": [
        -0.9999937415122986,
        -1.0,
        -0.9938926100730896,
        1.0
      ],
      "type": "VEC4"
    },
    {
      "bufferView": 1,
      "byteOffset": 34280,
      "componentType": 5126,
      "count": 427,
      "max": [
        0.6042029857635498,
        0.99993497133255
      ],
      "min": [
        6.500000017695129e-05,
        6.500000017695129e-05
      ],
      "type": "VEC2"
    },
    {
      "bufferView": 0,
      "byteOffset": 59280,
      "componentType": 5125,
      "count": 2148,
      "type": "SCALAR"
    },
    {
      "bufferView": 2,
      "byteOffset": 113088,
      "componentType": 5126,
      "count": 588,
      "max": [
        1.0,
        1.0,
        1.0000009536743164
      ],
      "min": [
        -1.0,
        -1.0,
        -1.0
      ],
      "type": "VEC3"
    },
    {
      "bufferView": 2,
      "byteOffset": 120144,
      "componentType": 5126,
      "count": 588,
      "max": [
        1.0,
        1.0,
        1.0
      ],
      "min": [
        -1.0,
        -1.0,
        -1.0
      ],
      "type": "VEC3"
    },
    {
      "bufferView": 3,
      "byteOffset": 75392,
      "componentType": 5126,
      "count": 588,
      "max": [
        0.9955053329467773,
        0.9955052137374878,
        1.0,
        1.0
      ],
      "min": [
        -0.9955053329467773,
        -0.9976069331169128,
        -1.0,
        1.0
      ],
      "type": "VEC4"
    },
    {
      "bufferView": 1,
      "byteOffset": 37696,
      "componentType": 5126,
      "count": 588,
      "max": [
        0.973829984664917,
        0.9997879862785339
      ],
      "min": [
        0.011982000432908535,
        0.0002119999990100041
      ],
      "type": "VEC2"
    },
    {
      "bufferView": 0,
      "byteOffset": 67872,
      "componentType": 5125,
      "count": 2292,
      "type": "SCALAR"
    },
    {
      "bufferView": 2,
      "byteOffset": 127200,
      "componentType": 5126,
      "count": 3252,
      "max": [
        1.032204031944275,
        1.0000009536743164,
        1.0453890562057495
      ],
      "min": [
        -1.032204031944275,
        -1.0,
        -1.0000009536743164
      ],
      "type": "VEC3"
    },
    {
      "bufferView": 2,
      "byteOffset": 166224,
      "componentType": 5126,
      "count": 3252,
      "max": [
        1.0,
        1.0,
        1.0
      ],
      "min": [
        -1.0,
        -1.0,
        -1.0
      ],
      "type": "VEC3"
    },
    {
      "bufferView": 3,
      "byteOffset": 84800,
      "componentType": 5126,
      "count": 3252,
      "max": [
        0.9999998211860657,
        0.999873697757721,
        1.0,
        1.0
      ],
      "min": [
        -0.9951847195625305,
        -1.0,
        -1.0,
        1.0
      ],
      "type": "VEC4"
    },
    {
      "bufferView": 1,
      "byteOffset": 42400,
      "componentType": 5126,
      "count": 3252,
      "max": [
        0.9993600249290466,
        0.9615309834480286
      ],
      "min": [
        0.0006399999838322401,
        0.0006399999838322401
      ],
      "type": "VEC2"
    },
    {
      "bufferView": 0,
      "byteOffset": 77040,
      "componentType": 5125,
      "count": 10308,
      "type": "SCALAR"
    }
  ],
  "asset": {
    "extras": {
      "author": "gozdemrl (https://sketchfab.com/gozdemrl)",
      "license": "CC-BY-4.0 (http://creativecommons.org/licenses/by/4.0/)",
      "source": "https://sketchfab.com/3d-models/old-microphone-812ed8c6fee44602a376159f7990a765",
      "title": "Old Microphone"
    },
    "generator": "Sketchfab-12.74.0",
    "version": "2.0"
  },
  "bufferViews": [
    {
      "buffer": 0,
      "byteLength": 118272,
      "name": "floatBufferViews",
      "target": 34963
    },
    {
      "buffer": 0,
      "byteLength": 68416,
      "byteOffset": 118272,
      "byteStride": 8,
      "name": "floatBufferViews",
      "target": 34962
    },
    {
      "buffer": 0,
      "byteLength": 205248,
      "byteOffset": 186688,
      "byteStride": 12,
      "name": "floatBufferViews",
      "target": 34962
    },
    {
      "buffer": 0,
      "byteLength": 136832,
      "byteOffset": 391936,
      "byteStride": 16,
      "name": "floatBufferViews",
      "target": 34962
    }
  ],
  "buffers": [
    {
      "byteLength": 528768,
      "uri": "scene.bin"
    }
  ],
  "images": [
    {
      "uri": "textures/material_baseColor.jpeg"
    },
    {
      "uri": "textures/material_metallicRoughness.png"
    },
    {
      "uri": "textures/material_normal.png"
    },
    {
      "uri": "textures/base1_baseColor.jpeg"
    },
    {
      "uri": "textures/base1_metallicRoughness.png"
    },
    {
      "uri": "textures/base1_normal.png"
    },
    {
      "uri": "textures/metal_baseColor.jpeg"
    },
    {
      "uri": "textures/metal_metallicRoughness.png"
    },
    {
      "uri": "textures/metal_normal.png"
    },
    {
      "uri": "textures/metal2_baseColor.jpeg"
    },
    {
      "uri": "textures/metal2_metallicRoughness.png"
    },
    {
      "uri": "textures/metal2_normal.png"
    },
    {
      "uri": "textures/taban_baseColor.jpeg"
    },
    {
      "uri": "textures/taban_metallicRoughness.png"
    },
    {
      "uri": "textures/taban_normal.png"
    },
    {
      "uri": "textures/Kablo_baseColor.jpeg"
    },
    {
      "uri": "textures/Kablo_metallicRoughness.png"
    },
    {
      "uri": "textures/Kablo_normal.png"
    }
  ],
  "materials": [
    {
      "doubleSided": true,
      "name": "material",
      "normalTexture": {
        "index": 2
      },
      "occlusionTexture": {
        "index": 1
      },
      "pbrMetallicRoughness": {
        "baseColorTexture": {
          "index": 0
        },
        "metallicRoughnessTexture": {
          "index": 1
        }
      }
    },
    {
      "doubleSided": true,
      "name": "base1",
      "normalTexture": {
        "index": 5
      },
      "occlusionTexture": {
        "index": 4
      },
      "pbrMetallicRoughness": {
        "baseColorTexture": {
          "index": 3
        },
        "metallicRoughnessTexture": {
          "index": 4
        }
      }
    },
    {
      "doubleSided": true,
      "name": "metal",
      "normalTexture": {
        "index": 8
      },
      "occlusionTexture": {
        "index": 7
      },
      "pbrMetallicRoughness": {
        "baseColorTexture": {
          "index": 6
        },
        "metallicRoughnessTexture": {
          "index": 7
        }
      }
    },
    {
      "doubleSided": true,
      "name": "metal2",
      "normalTexture": {
        "index": 11
      },
      "occlusionTexture": {
        "index": 10
      },
      "pbrMetallicRoughness": {
        "baseColorTexture": {
          "index": 9
        },
        "metallicRoughnessTexture": {
          "index": 10
        }
      }
    },
    {
      "doubleSided": true,
      "name": "taban",
      "normalTexture": {
        "index": 14
      },
      "occlusionTexture": {
        "index": 13
      },
      "pbrMetallicRoughness": {
        "baseColorTexture": {
          "index": 12
        },
        "metallicRoughnessTexture": {
          "index": 13
        }
      }
    },
    {
      "doubleSided": true,
      "name": "Kablo",
      "normalTexture": {
        "index": 17
      },
      "occlusionTexture": {
        "index": 16
      },
      "pbrMetallicRoughness": {
        "baseColorTexture": {
          "index": 15
        },
        "metallicRoughnessTexture": {
          "index": 16
        }
      }
    }
  ],
  "meshes": [
    {
      "name": "defaultMaterial",
      "primitives": [
        {
          "attributes": {
            "NORMAL": 1,
            "POSITION": 0,
            "TANGENT": 2,
            "TEXCOORD_0": 3
          },
          "indices": 4,
          "material": 5,
          "mode": 4
        }
      ]
    },
    {
      "name": "defaultMaterial",
      "primitives": [
        {
          "attributes": {
            "NORMAL": 6,
            "POSITION": 5,
            "TANGENT": 7,
            "TEXCOORD_0": 8
          },
          "indices": 9,
          "material": 4,
          "mode": 4
        }
      ]
    },
    {
      "name": "defaultMaterial",
      "primitives": [
        {
          "attributes": {
            "NORMAL": 11,
            "POSITION": 10,
            "TANGENT": 12,
            "TEXCOORD_0": 13
          },
          "indices": 14,
          "material": 3,
          "mode": 4
        }
      ]
    },
    {
      "name": "defaultMaterial",
      "primitives": [
        {
          "attributes": {
            "NORMAL": 16,
            "POSITION": 15,
            "TANGENT": 17,
            "TEXCOORD_0": 18
          },
          "indices": 19,
          "material": 2,
          "mode": 4
        }
      ]
    },
    {
      "name": "defaultMaterial",
      "primitives": [
        {
          "attributes": {
            "NORMAL": 21,
            "POSITION": 20,
            "TANGENT": 22,
            "TEXCOORD_0": 23
          },
          "indices": 24,
          "material": 1,
          "mode": 4
        }
      ]
    },
    {
      "name": "defaultMaterial",
      "primitives": [
        {
          "attributes": {
            "NORMAL": 26,
            "POSITION": 25,
            "TANGENT": 27,
            "TEXCOORD_0": 28
          },
          "indices": 29,
          "material": 0,
          "mode": 4
        }
      ]
    }
  ],
  "nodes": [
    {
      "children": [
        1
      ],
      "matrix": [
        1.0,
        0.0,
        0.0,
        0.0,
        0.0,
        2.220446049250313e-16,
        -1.0,
        0.0,
        0.0,
        1.0,
        2.220446049250313e-16,
        0.0,
        0.0,
        0.0,
        0.0,
        1.0
      ],
      "name": "Sketchfab_model"
    },
    {
      "children": [
        2,
        4,
        6,
        8,
        10,
        12
      ],
      "matrix": [
        1.0,
        0.0,
        0.0,
        0.0,
        0.0,
        -4.371139006309477e-08,
        0.999999999999999,
        0.0,
        0.0,
        -0.999999999999999,
        -4.371139006309477e-08,
        0.0,
        0.0,
        0.0,
        0.0,
        1.0
      ],
      "name": "Collada visual scene group"
    },
    {
      "children": [
        3
      ],
      "matrix": [
        -4e-06,
        -100.0,
        6e-06,
        0.0,
        -1.6e-05,
        -6e-06,
        -100.0,
        0.0,
        100.0,
        -4e-06,
        -1.6e-05,
        0.0,
        -88.900742,
        2386.339844,
        168.157974,
        1.0
      ],
      "name": "NurbsPath.001"
    },
    {
      "mesh": 0,
      "name": "defaultMaterial"
    },
    {
      "children": [
        5
      ],
      "matrix": [
        44.084312,
        0.0,
        0.0,
        0.0,
        0.0,
        -7e-06,
        -44.084312,
        0.0,
        0.0,
        44.084312,
        -7e-06,
        0.0,
        0.0,
        2584.176025,
        168.779404,
        1.0
      ],
      "name": "Cylinder.004"
    },
    {
      "mesh": 1,
      "name": "defaultMaterial"
    },
    {
      "children": [
        7
      ],
      "matrix": [
        -1e-06,
        -18.740696,
        1e-06,
        0.0,
        -4e-06,
        -1e-06,
        -22.475662,
        0.0,
        44.852226,
        -2e-06,
        -7e-06,
        0.0,
        156.307907,
        3064.134766,
        167.673737,
        1.0
      ],
      "name": "Cylinder.002"
    },
    {
      "mesh": 2,
      "name": "defaultMaterial"
    },
    {
      "children": [
        9
      ],
      "matrix": [
        269.180023,
        0.0,
        0.0,
        0.0,
        0.0,
        -4.4e-05,
        -269.180023,
        0.0,
        0.0,
        224.448151,
        -3.7e-05,
        0.0,
        0.0,
        2591.541504,
        168.942184,
        1.0
      ],
      "name": "NurbsPath"
    },
    {
      "mesh": 3,
      "name": "defaultMaterial"
    },
    {
      "children": [
        11
      ],
      "matrix": [
        114.668152,
        0.0,
        0.0,
        0.0,
        0.0,
        32.329372,
        -110.016357,
        0.0,
        0.0,
        173.527878,
        50.992847,
        0.0,
        2.116411,
        2830.647949,
        104.600929,
        1.0
      ],
      "name": "Cylinder"
    },
    {
      "mesh": 4,
      "name": "defaultMaterial"
    },
    {
      "children": [
        13
      ],
      "matrix": [
        108.77639,
        0.0,
        0.0,
        0.0,
        0.0,
        30.668257,
        -104.363609,
        0.0,
        0.0,
        150.932632,
        44.35302,
        0.0,
        1.399231,
        3154.187012,
        200.40863,
        1.0
      ],
      "name": "Cylinder.001"
    },
    {
      "mesh": 5,
      "name": "defaultMaterial"
    }
  ],
  "samplers": [
    {
      "magFilter": 9729,
      "minFilter": 9987,
      "wrapS": 10497,
      "wrapT": 10497
    }
  ],
  "scene": 0,
  "scenes": [
    {
      "name": "Sketchfab_Scene",
      "nodes": [
        0
      ]
    }
  ],
  "textures": [
    {
      "sampler": 0,
      "source": 0
    },
    {
      "sampler": 0,
      "source": 1
    },
    {
      "sampler": 0,
      "source": 2
    },
    {
      "sampler": 0,
      "source": 3
    },
    {
      "sampler": 0,
      "source": 4
    },
    {
      "sampler": 0,
      "source": 5
    },
    {
      "sampler": 0,
      "source": 6
    },
    {
      "sampler": 0,
      "source": 7
    },
    {
      "sampler": 0,
      "source": 8
    },
    {
      "sampler": 0,
      "source": 9
    },
    {
      "sampler": 0,
      "source": 10
    },
    {
      "sampler": 0,
      "source": 11
    },
    {
      "sampler": 0,
      "source": 12
    },
    {
      "sampler": 0,
      "source": 13
    },
    {
      "sampler": 0,
      "source": 14
    },
    {
      "sampler": 0,
      "source": 15
    },
    {
      "sampler": 0,
      "source": 16
    },
    {
      "sampler": 0,
      "source": 17
    }
  ]
}
