{
  "accessors": [
    {
      "bufferView": 2,
      "componentType": 5126,
      "count": 72,
      "max": [
        0.0762220025062561,
        3.5664429664611816,
        10.782712936401367
      ],
      "min": [
        0.0575530007481575,
        3.550931930541992,
        10.771482467651367
      ],
      "type": "VEC3"
    },
    {
      "bufferView": 2,
      "byteOffset": 864,
      "componentType": 5126,
      "count": 72,
      "max": [
        0.9982035160064697,
        0.9837806820869446,
        0.8143422603607178
      ],
      "min": [
        -0.9985938668251038,
        -0.8290979266166687,
        -0.8185583353042603
      ],
      "type": "VEC3"
    },
    {
      "bufferView": 3,
      "componentType": 5126,
      "count": 72,
      "max": [
        1.0,
        0.9549790620803833,
        1.0,
        1.0
      ],
      "min": [
        -0.9065883159637451,
        -0.9899576306343079,
        -0.9167513847351074,
        -1.0
      ],
      "type": "VEC4"
    },
    {
      "bufferView": 1,
      "componentType": 5126,
      "count": 72,
      "max": [
        0.9976609945297241,
        0.845890998840332
      ],
      "min": [
        0.9942700266838074,
        0.845255970954895
      ],
      "type": "VEC2"
    },
    {
      "bufferView": 0,
      "componentType": 5125,
      "count": 156,
      "type": "SCALAR"
    },
    {
      "bufferView": 2,
      "byteOffset": 1728,
      "componentType": 5126,
      "count": 3452,
      "max": [
        0.4506379961967468,
        3.6913321018218994,
        10.872312545776367
      ],
      "min": [
        -0.7243229746818542,
        -0.8702239990234375,
        0.02465900033712387
      ],
      "type": "VEC3"
    },
    {
      "bufferView": 2,
      "byteOffset": 43152,
      "componentType": 5126,
      "count": 3452,
      "max": [
        0.9991378784179688,
        0.9999043345451355,
        0.999956488609314
      ],
      "min": [
        -0.9991374611854553,
        -0.9987388849258423,
        -0.9999565482139587
      ],
      "type": "VEC3"
    },
    {
      "bufferView": 3,
      "byteOffset": 1152,
      "componentType": 5126,
      "count": 3452,
      "max": [
        0.9999492168426514,
        0.9999146461486816,
        0.9997879862785339,
        1.0
      ],
      "min": [
        -0.9995900392532349,
        -0.9999083280563354,
        -0.9993336200714111,
        -1.0
      ],
      "type": "VEC4"
    },
    {
      "bufferView": 1,
      "byteOffset": 576,
      "componentType": 5126,
      "count": 3452,
      "max": [
        1.0,
        1.0
      ],
      "min": [
        0.0,
        0.0
      ],
      "type": "VEC2"
    },
    {
      "bufferView": 0,
      "byteOffset": 624,
      "componentType": 5125,
      "count": 14412,
      "type": "SCALAR"
    },
    {
      "bufferView": 2,
      "byteOffset": 84576,
      "componentType": 5126,
      "count": 2960,
      "max": [
        0.9662700295448303,
        3.78690505027771,
        10.834535598754883
      ],
      "min": [
        -0.9175639748573303,
        -0.6714310050010681,
        1.8820550441741943
      ],
      "type": "VEC3"
    },
    {
      "bufferView": 2,
      "byteOffset": 120096,
      "componentType": 5126,
      "count": 2960,
      "max": [
        0.9998682141304016,
        0.9987390041351318,
        0.9996022582054138
      ],
      "min": [
        -0.9991377592086792,
        -0.9987393617630005,
        -0.9998926520347595
      ],
      "type": "VEC3"
    },
    {
      "bufferView": 3,
      "byteOffset": 56384,
      "componentType": 5126,
      "count": 2960,
      "max": [
        0.9980211853981018,
        0.9993438124656677,
        0.9997844696044922,
        1.0
      ],
      "min": [
        -0.9980084896087646,
        -0.9999215006828308,
        -0.9994977712631226,
        -1.0
      ],
      "type": "VEC4"
    },
    {
      "bufferView": 1,
      "byteOffset": 28192,
      "componentType": 5126,
      "count": 2960,
      "max": [
        0.9977149963378906,
        0.997655987739563
      ],
      "min": [
        0.0014600000577047467,
        0.07007300108671188
      ],
      "type": "VEC2"
    },
    {
      "bufferView": 0,
      "byteOffset": 58272,
      "componentType": 5125,
      "count": 13776,
      "type": "SCALAR"
    },
    {
      "bufferView": 2,
      "byteOffset": 155616,
      "componentType": 5126,
      "count": 2644,
      "max": [
        1.9921469688415527,
        2.494493007659912,
        9.244953155517578
      ],
      "min": [
        -1.94713294506073,
        -1.1283479928970337,
        0.13317100703716278
      ],
      "type": "VEC3"
    },
    {
      "bufferView": 2,
      "byteOffset": 187344,
      "componentType": 5126,
      "count": 2644,
      "max": [
        0.9991369843482971,
        0.920333743095398,
        0.9999166131019592
      ],
      "min": [
        -0.9992678761482239,
        -0.9991118907928467,
        -0.9999045133590698
      ],
      "type": "VEC3"
    },
    {
      "bufferView": 3,
      "byteOffset": 103744,
      "componentType": 5126,
      "count": 2644,
      "max": [
        0.99811190366745,
        0.9994243383407593,
        0.999356210231781,
        1.0
      ],
      "min": [
        -0.9999923706054688,
        -0.9991323947906494,
        -0.926468014717102,
        1.0
      ],
      "type": "VEC4"
    },
    {
      "bufferView": 1,
      "byteOffset": 51872,
      "componentType": 5126,
      "count": 2644,
      "max": [
        0.9976530075073242,
        0.9972130060195923
      ],
      "min": [
        0.0014600000577047467,
        0.07007300108671188
      ],
      "type": "VEC2"
    },
    {
      "bufferView": 0,
      "byteOffset": 113376,
      "componentType": 5125,
      "count": 13476,
      "type": "SCALAR"
    },
    {
      "bufferView": 2,
      "byteOffset": 219072,
      "componentType": 5126,
      "count": 3042,
      "max": [
        0.33801499009132385,
        3.992187976837158,
        11.118361473083496
      ],
      "min": [
        -0.6088110208511353,
        0.7901290059089661,
        4.841156959533691
      ],
      "type": "VEC3"
    },
    {
      "bufferView": 2,
      "byteOffset": 255576,
      "componentType": 5126,
      "count": 3042,
      "max": [
        0.9994352459907532,
        0.9983081221580505,
        0.9207614064216614
      ],
      "min": [
        -0.9998735189437866,
        -0.9490847587585449,
        -0.9989480972290039
      ],
      "type": "VEC3"
    },
    {
      "bufferView": 3,
      "byteOffset": 146048,
      "componentType": 5126,
      "count": 3042,
      "max": [
        0.9925483465194702,
        0.9211170673370361,
        0.9999998211860657,
        1.0
      ],
      "min": [
        -0.9980292320251465,
        -0.9963215589523315,
        -0.9981048703193665,
        -1.0
      ],
      "type": "VEC4"
    },
    {
      "bufferView": 1,
      "byteOffset": 73024,
      "componentType": 5126,
      "count": 3042,
      "max": [
        0.9561240077018738,
        0.9201210141181946
      ],
      "min": [
        0.0014600000577047467,
        0.0839420035481453
      ],
      "type": "VEC2"
    },
    {
      "bufferView": 0,
      "byteOffset": 167280,
      "componentType": 5125,
      "count": 16848,
      "type": "SCALAR"
    },
    {
      "bufferView": 2,
      "byteOffset": 292080,
      "componentType": 5126,
      "count": 3115,
      "max": [
        -0.2512210011482239,
        3.02469801902771,
        10.116535186767578
      ],
      "min": [
        -0.38502201437950134,
        -0.6573470234870911,
        2.120816946029663
      ],
      "type": "VEC3"
    },
    {
      "bufferView": 2,
      "byteOffset": 329460,
      "componentType": 5126,
      "count": 3115,
      "max": [
        0.9995542168617249,
        0.9994980096817017,
        0.9999596476554871
      ],
      "min": [
        -0.9995946288108826,
        -0.9999805092811584,
        -0.999959409236908
      ],
      "type": "VEC3"
    },
    {
      "bufferView": 3,
      "byteOffset": 194720,
      "componentType": 5126,
      "count": 3115,
      "max": [
        0.9974678158760071,
        0.9999169111251831,
        0.9995027780532837,
        1.0
      ],
      "min": [
        -0.999232292175293,
        -0.9998556971549988,
        -0.9999997615814209,
        -1.0
      ],
      "type": "VEC4"
    },
    {
      "bufferView": 1,
      "byteOffset": 97360,
      "componentType": 5126,
      "count": 3115,
      "max": [
        1.0,
        1.0
      ],
      "min": [
        0.0,
        0.0
      ],
      "type": "VEC2"
    },
    {
      "bufferView": 0,
      "byteOffset": 234672,
      "componentType": 5125,
      "count": 17184,
      "type": "SCALAR"
    },
    {
      "bufferView": 2,
      "byteOffset": 366840,
      "componentType": 5126,
      "count": 3149,
      "max": [
        -0.14182299375534058,
        3.310410976409912,
        10.494071960449219
      ],
      "min": [
        -0.42033401131629944,
        -0.6561740040779114,
        2.088948965072632
      ],
      "type": "VEC3"
    },
    {
      "bufferView": 2,
      "byteOffset": 404628,
      "componentType": 5126,
      "count": 3149,
      "max": [
        0.9915710091590881,
        0.9994381070137024,
        0.9996723532676697
      ],
      "min": [
        -0.9935247898101807,
        -0.9999560117721558,
        -1.0
      ],
      "type": "VEC3"
    },
    {
      "bufferView": 3,
      "byteOffset": 244560,
      "componentType": 5126,
      "count": 3149,
      "max": [
        0.999847412109375,
        0.776646614074707,
        0.9657567739486694,
        1.0
      ],
      "min": [
        -0.9824914932250977,
        -0.8808954358100891,
        -0.7984837889671326,
        -1.0
      ],
      "type": "VEC4"
    },
    {
      "bufferView": 1,
      "byteOffset": 122280,
      "componentType": 5126,
      "count": 3149,
      "max": [
        1.0,
        1.0
      ],
      "min": [
        0.0,
        0.0
      ],
      "type": "VEC2"
    },
    {
      "bufferView": 0,
      "byteOffset": 303408,
      "componentType": 5125,
      "count": 17376,
      "type": "SCALAR"
    },
    {
      "bufferView": 2,
      "byteOffset": 442416,
      "componentType": 5126,
      "count": 3672,
      "max": [
        0.19177399575710297,
        3.588346004486084,
        10.860605239868164
      ],
      "min": [
        -0.032924000173807144,
        -0.6492540240287781,
        2.063019037246704
      ],
      "type": "VEC3"
    },
    {
      "bufferView": 2,
      "byteOffset": 486480,
      "componentType": 5126,
      "count": 3672,
      "max": [
        0.9994175434112549,
        0.9853798747062683,
        0.9871848821640015
      ],
      "min": [
        -0.9991981387138367,
        -0.9850606322288513,
        -0.9870330095291138
      ],
      "type": "VEC3"
    },
    {
      "bufferView": 3,
      "byteOffset": 294944,
      "componentType": 5126,
      "count": 3672,
      "max": [
        0.9980544447898865,
        0.9874013066291809,
        0.9863390326499939,
        1.0
      ],
      "min": [
        -0.9991868138313293,
        -0.9839171171188354,
        -0.9825143814086914,
        1.0
      ],
      "type": "VEC4"
    },
    {
      "bufferView": 1,
      "byteOffset": 147472,
      "componentType": 5126,
      "count": 3672,
      "max": [
        0.9976609945297241,
        0.936968982219696
      ],
      "min": [
        0.4065690040588379,
        0.845255970954895
      ],
      "type": "VEC2"
    },
    {
      "bufferView": 0,
      "byteOffset": 372912,
      "componentType": 5125,
      "count": 20544,
      "type": "SCALAR"
    },
    {
      "bufferView": 2,
      "byteOffset": 530544,
      "componentType": 5126,
      "count": 3795,
      "max": [
        0.34579598903656006,
        3.051701068878174,
        10.106846809387207
      ],
      "min": [
        0.07300599664449692,
        -0.6232159733772278,
        2.0913949012756348
      ],
      "type": "VEC3"
    },
    {
      "bufferView": 2,
      "byteOffset": 576084,
      "componentType": 5126,
      "count": 3795,
      "max": [
        0.9999121427536011,
        0.999883770942688,
        0.9999016523361206
      ],
      "min": [
        -0.9995972514152527,
        -0.9994876384735107,
        -0.9997227787971497
      ],
      "type": "VEC3"
    },
    {
      "bufferView": 3,
      "byteOffset": 353696,
      "componentType": 5126,
      "count": 3795,
      "max": [
        0.9995319843292236,
        0.9999771118164063,
        0.9995629191398621,
        1.0
      ],
      "min": [
        -0.9996950626373291,
        -0.9996063113212585,
        -0.9996692538261414,
        -1.0
      ],
      "type": "VEC4"
    },
    {
      "bufferView": 1,
      "byteOffset": 176848,
      "componentType": 5126,
      "count": 3795,
      "max": [
        1.0,
        1.0
      ],
      "min": [
        0.0,
        0.0
      ],
      "type": "VEC2"
    },
    {
      "bufferView": 0,
      "byteOffset": 455088,
      "componentType": 5125,
      "count": 21024,
      "type": "SCALAR"
    },
    {
      "bufferView": 2,
      "byteOffset": 621624,
      "componentType": 5126,
      "count": 3863,
      "max": [
        -0.026057999581098557,
        3.5675439834594727,
        10.860516548156738
      ],
      "min": [
        -0.43015599250793457,
        -0.6479390263557434,
        2.0671958923339844
      ],
      "type": "VEC3"
    },
    {
      "bufferView": 2,
      "byteOffset": 667980,
      "componentType": 5126,
      "count": 3863,
      "max": [
        0.9992785453796387,
        0.9869040250778198,
        0.9919061064720154
      ],
      "min": [
        -0.9991984963417053,
        -0.984914243221283,
        -0.9871836304664612
      ],
      "type": "VEC3"
    },
    {
      "bufferView": 3,
      "byteOffset": 414416,
      "componentType": 5126,
      "count": 3863,
      "max": [
        0.9993603229522705,
        0.98600172996521,
        0.9879817366600037,
        1.0
      ],
      "min": [
        -0.9999753832817078,
        -0.9824801087379456,
        -0.9824561476707458,
        -1.0
      ],
      "type": "VEC4"
    },
    {
      "bufferView": 1,
      "byteOffset": 207208,
      "componentType": 5126,
      "count": 3863,
      "max": [
        1.0,
        1.0
      ],
      "min": [
        0.0,
        0.0
      ],
      "type": "VEC2"
    },
    {
      "bufferView": 0,
      "byteOffset": 539184,
      "componentType": 5125,
      "count": 21408,
      "type": "SCALAR"
    },
    {
      "bufferView": 2,
      "byteOffset": 714336,
      "componentType": 5126,
      "count": 4033,
      "max": [
        0.2273460030555725,
        3.3134689331054688,
        10.49756908416748
      ],
      "min": [
        0.03933500126004219,
        -0.628121018409729,
        2.0914549827575684
      ],
      "type": "VEC3"
    },
    {
      "bufferView": 2,
      "byteOffset": 762732,
      "componentType": 5126,
      "count": 4033,
      "max": [
        0.9986050128936768,
        0.999354362487793,
        0.9998798966407776
      ],
      "min": [
        -0.999298632144928,
        -0.999422013759613,
        -0.9999515414237976
      ],
      "type": "VEC3"
    },
    {
      "bufferView": 3,
      "byteOffset": 476224,
      "componentType": 5126,
      "count": 4033,
      "max": [
        0.9997268319129944,
        0.999999463558197,
        0.9999819397926331,
        1.0
      ],
      "min": [
        -0.9986352920532227,
        -0.9997236728668213,
        -0.9997073411941528,
        -1.0
      ],
      "type": "VEC4"
    },
    {
      "bufferView": 1,
      "byteOffset": 238112,
      "componentType": 5126,
      "count": 4033,
      "max": [
        1.0,
        1.0
      ],
      "min": [
        0.0,
        0.0
      ],
      "type": "VEC2"
    },
    {
      "bufferView": 0,
      "byteOffset": 624816,
      "componentType": 5125,
      "count": 22368,
      "type": "SCALAR"
    },
    {
      "bufferView": 2,
      "byteOffset": 811128,
      "componentType": 5126,
      "count": 7966,
      "max": [
        2.070038080215454,
        1.8160500526428223,
        5.23776912689209
      ],
      "min": [
        -2.0849850177764893,
        -1.2561240196228027,
        -0.040778998285532
      ],
      "type": "VEC3"
    },
    {
      "bufferView": 2,
      "byteOffset": 906720,
      "componentType": 5126,
      "count": 7966,
      "max": [
        0.9998293519020081,
        0.9962952136993408,
        0.9991465210914612
      ],
      "min": [
        -0.9998660087585449,
        -0.9996849894523621,
        -0.9999271035194397
      ],
      "type": "VEC3"
    },
    {
      "bufferView": 3,
      "byteOffset": 540752,
      "componentType": 5126,
      "count": 7966,
      "max": [
        0.999912679195404,
        0.9583020806312561,
        0.98729407787323,
        1.0
      ],
      "min": [
        -0.9998381733894348,
        -0.9172884225845337,
        -0.9986774325370789,
        -1.0
      ],
      "type": "VEC4"
    },
    {
      "bufferView": 1,
      "byteOffset": 270376,
      "componentType": 5126,
      "count": 7966,
      "max": [
        0.997098982334137,
        0.9078519940376282
      ],
      "min": [
        0.0014600000577047467,
        0.0020940001122653484
      ],
      "type": "VEC2"
    },
    {
      "bufferView": 0,
      "byteOffset": 714288,
      "componentType": 5125,
      "count": 46800,
      "type": "SCALAR"
    }
  ],
  "asset": {
    "extras": {
      "author": "Ivan Dnistrian (https://sketchfab.com/ivanlynx)",
      "license": "CC-BY-4.0 (http://creativecommons.org/licenses/by/4.0/)",
      "source": "https://sketchfab.com/3d-models/guitar-a44930f9c14544a6ae6967d5544417e8",
      "title": "Guitar"
    },
    "generator": "Sketchfab-12.66.0",
    "version": "2.0"
  },
  "bufferViews": [
    {
      "buffer": 0,
      "byteLength": 901488,
      "name": "floatBufferViews",
      "target": 34963
    },
    {
      "buffer": 0,
      "byteLength": 334104,
      "byteOffset": 901488,
      "byteStride": 8,
      "name": "floatBufferViews",
      "target": 34962
    },
    {
      "buffer": 0,
      "byteLength": 1002312,
      "byteOffset": 1235592,
      "byteStride": 12,
      "name": "floatBufferViews",
      "target": 34962
    },
    {
      "buffer": 0,
      "byteLength": 668208,
      "byteOffset": 2237904,
      "byteStride": 16,
      "name": "floatBufferViews",
      "target": 34962
    }
  ],
  "buffers": [
    {
      "byteLength": 2906112,
      "uri": "scene.bin"
    }
  ],
  "images": [
    {
      "uri": "textures/initialShadingGroup_baseColor.jpeg"
    },
    {
      "uri": "textures/initialShadingGroup_metallicRoughness.png"
    },
    {
      "uri": "textures/initialShadingGroup_normal.png"
    }
  ],
  "materials": [
    {
      "doubleSided": true,
      "name": "initialShadingGroup",
      "normalTexture": {
        "index": 2
      },
      "pbrMetallicRoughness": {
        "baseColorTexture": {
          "index": 0
        },
        "metallicRoughnessTexture": {
          "index": 1
        }
      }
    }
  ],
  "meshes": [
    {
      "name": "Object_0",
      "primitives": [
        {
          "attributes": {
            "NORMAL": 1,
            "POSITION": 0,
            "TANGENT": 2,
            "TEXCOORD_0": 3
          },
          "indices": 4,
          "material": 0,
          "mode": 4
        }
      ]
    },
    {
      "name": "Object_1",
      "primitives": [
        {
          "attributes": {
            "NORMAL": 6,
            "POSITION": 5,
            "TANGENT": 7,
            "TEXCOORD_0": 8
          },
          "indices": 9,
          "material": 0,
          "mode": 4
        }
      ]
    },
    {
      "name": "Object_2",
      "primitives": [
        {
          "attributes": {
            "NORMAL": 11,
            "POSITION": 10,
            "TANGENT": 12,
            "TEXCOORD_0": 13
          },
          "indices": 14,
          "material": 0,
          "mode": 4
        }
      ]
    },
    {
      "name": "Object_3",
      "primitives": [
        {
          "attributes": {
            "NORMAL": 16,
            "POSITION": 15,
            "TANGENT": 17,
            "TEXCOORD_0": 18
          },
          "indices": 19,
          "material": 0,
          "mode": 4
        }
      ]
    },
    {
      "name": "Object_4",
      "primitives": [
        {
          "attributes": {
            "NORMAL": 21,
            "POSITION": 20,
            "TANGENT": 22,
            "TEXCOORD_0": 23
          },
          "indices": 24,
          "material": 0,
          "mode": 4
        }
      ]
    },
    {
      "name": "Object_5",
      "primitives": [
        {
          "attributes": {
            "NORMAL": 26,
            "POSITION": 25,
            "TANGENT": 27,
            "TEXCOORD_0": 28
          },
          "indices": 29,
          "material": 0,
          "mode": 4
        }
      ]
    },
    {
      "name": "Object_6",
      "primitives": [
        {
          "attributes": {
            "NORMAL": 31,
            "POSITION": 30,
            "TANGENT": 32,
            "TEXCOORD_0": 33
          },
          "indices": 34,
          "material": 0,
          "mode": 4
        }
      ]
    },
    {
      "name": "Object_7",
      "primitives": [
        {
          "attributes": {
            "NORMAL": 36,
            "POSITION": 35,
            "TANGENT": 37,
            "TEXCOORD_0": 38
          },
          "indices": 39,
          "material": 0,
          "mode": 4
        }
      ]
    },
    {
      "name": "Object_8",
      "primitives": [
        {
          "attributes": {
            "NORMAL": 41,
            "POSITION": 40,
            "TANGENT": 42,
            "TEXCOORD_0": 43
          },
          "indices": 44,
          "material": 0,
          "mode": 4
        }
      ]
    },
    {
      "name": "Object_9",
      "primitives": [
        {
          "attributes": {
            "NORMAL": 46,
            "POSITION": 45,
            "TANGENT": 47,
            "TEXCOORD_0": 48
          },
          "indices": 49,
          "material": 0,
          "mode": 4
        }
      ]
    },
    {
      "name": "Object_10",
      "primitives": [
        {
          "attributes": {
            "NORMAL": 51,
            "POSITION": 50,
            "TANGENT": 52,
            "TEXCOORD_0": 53
          },
          "indices": 54,
          "material": 0,
          "mode": 4
        }
      ]
    },
    {
      "name": "Object_11",
      "primitives": [
        {
          "attributes": {
            "NORMAL": 56,
            "POSITION": 55,
            "TANGENT": 57,
            "TEXCOORD_0": 58
          },
          "indices": 59,
          "material": 0,
          "mode": 4
        }
      ]
    }
  ],
  "nodes": [
    {
      "children": [
        1
      ],
      "matrix": [
        1.0,
        0.0,
        0.0,
        0.0,
        0.0,
        2.220446049250313e-16,
        -1.0,
        0.0,
        0.0,
        1.0,
        2.220446049250313e-16,
        0.0,
        0.0,
        0.0,
        0.0,
        1.0
      ],
      "name": "Sketchfab_model"
    },
    {
      "children": [
        2,
        3,
        4,
        5,
        6,
        7,
        8,
        9,
        10,
        11,
        12,
        13
      ],
      "name": "Guitar_04.obj.cleaner.materialmerger.gles"
    },
    {
      "mesh": 0,
      "name": "Object_2"
    },
    {
      "mesh": 1,
      "name": "Object_3"
    },
    {
      "mesh": 2,
      "name": "Object_4"
    },
    {
      "mesh": 3,
      "name": "Object_5"
    },
    {
      "mesh": 4,
      "name": "Object_6"
    },
    {
      "mesh": 5,
      "name": "Object_7"
    },
    {
      "mesh": 6,
      "name": "Object_8"
    },
    {
      "mesh": 7,
      "name": "Object_9"
    },
    {
      "mesh": 8,
      "name": "Object_10"
    },
    {
      "mesh": 9,
      "name": "Object_11"
    },
    {
      "mesh": 10,
      "name": "Object_12"
    },
    {
      "mesh": 11,
      "name": "Object_13"
    }
  ],
  "samplers": [
    {
      "magFilter": 9729,
      "minFilter": 9987,
      "wrapS": 10497,
      "wrapT": 10497
    }
  ],
  "scene": 0,
  "scenes": [
    {
      "name": "Sketchfab_Scene",
      "nodes": [
        0
      ]
    }
  ],
  "textures": [
    {
      "sampler": 0,
      "source": 0
    },
    {
      "sampler": 0,
      "source": 1
    },
    {
      "sampler": 0,
      "source": 2
    }
  ]
}
