{
  "accessors": [
    {
      "bufferView": 2,
      "componentType": 5126,
      "count": 15999,
      "max": [
        0.3137962818145752,
        0.31163427233695984,
        0.3066228926181793
      ],
      "min": [
        -0.3137962818145752,
        -0.3130435645580292,
        -0.3300808370113373
      ],
      "type": "VEC3"
    },
    {
      "bufferView": 2,
      "byteOffset": 191988,
      "componentType": 5126,
      "count": 15999,
      "max": [
        1.0,
        1.0,
        1.0
      ],
      "min": [
        -1.0,
        -1.0,
        -1.0
      ],
      "type": "VEC3"
    },
    {
      "bufferView": 1,
      "componentType": 5126,
      "count": 15999,
      "max": [
        0.996471643447876,
        0.9970172643661499
      ],
      "min": [
        0.0029827419202774763,
        0.0029827419202774763
      ],
      "type": "VEC2"
    },
    {
      "bufferView": 0,
      "componentType": 5125,
      "count": 69642,
      "type": "SCALAR"
    },
    {
      "bufferView": 2,
      "byteOffset": 383976,
      "componentType": 5126,
      "count": 44829,
      "max": [
        1.7409496307373047,
        1.0150156021118164,
        0.34667399525642395
      ],
      "min": [
        -1.7409539222717285,
        -0.9801977276802063,
        -0.4471909701824188
      ],
      "type": "VEC3"
    },
    {
      "bufferView": 2,
      "byteOffset": 921924,
      "componentType": 5126,
      "count": 44829,
      "max": [
        1.0,
        1.0,
        1.0
      ],
      "min": [
        -1.0,
        -1.0,
        -1.0
      ],
      "type": "VEC3"
    },
    {
      "bufferView": 1,
      "byteOffset": 127992,
      "componentType": 5126,
      "count": 44829,
      "max": [
        0.9968348145484924,
        0.9971268177032471
      ],
      "min": [
        0.002873088466003537,
        0.002873088466003537
      ],
      "type": "VEC2"
    },
    {
      "bufferView": 0,
      "byteOffset": 278568,
      "componentType": 5125,
      "count": 181368,
      "type": "SCALAR"
    }
  ],
  "asset": {
    "extras": {
      "author": "Ryan_Nein (https://sketchfab.com/Ryan_Nein)",
      "license": "CC-BY-4.0 (http://creativecommons.org/licenses/by/4.0/)",
      "source": "https://sketchfab.com/3d-models/fender-bass-amp-087b5a3601b040aa96adce426f8e685d",
      "title": "Fender Bass Amp"
    },
    "generator": "Sketchfab-12.66.0",
    "version": "2.0"
  },
  "bufferViews": [
    {
      "buffer": 0,
      "byteLength": 1004040,
      "name": "floatBufferViews",
      "target": 34963
    },
    {
      "buffer": 0,
      "byteLength": 486624,
      "byteOffset": 1004040,
      "byteStride": 8,
      "name": "floatBufferViews",
      "target": 34962
    },
    {
      "buffer": 0,
      "byteLength": 1459872,
      "byteOffset": 1490664,
      "byteStride": 12,
      "name": "floatBufferViews",
      "target": 34962
    }
  ],
  "buffers": [
    {
      "byteLength": 2950536,
      "uri": "scene.bin"
    }
  ],
  "images": [
    {
      "uri": "textures/FenderAmpCabinet_baseColor.png"
    },
    {
      "uri": "textures/FenderAmpCabinet_metallicRoughness.png"
    },
    {
      "uri": "textures/FenderAmpHead_baseColor.png"
    },
    {
      "uri": "textures/FenderAmpHead_metallicRoughness.png"
    },
    {
      "uri": "textures/FenderAmpHead_emissive.png"
    }
  ],
  "materials": [
    {
      "doubleSided": true,
      "name": "FenderAmpCabinet",
      "pbrMetallicRoughness": {
        "baseColorTexture": {
          "index": 0
        },
        "metallicRoughnessTexture": {
          "index": 1
        }
      }
    },
    {
      "doubleSided": true,
      "emissiveFactor": [
        1.0,
        1.0,
        1.0
      ],
      "emissiveTexture": {
        "index": 4
      },
      "name": "FenderAmpHead",
      "pbrMetallicRoughness": {
        "baseColorTexture": {
          "index": 2
        },
        "metallicRoughnessTexture": {
          "index": 3
        }
      }
    }
  ],
  "meshes": [
    {
      "name": "Cab_FenderAmpCabinet_0",
      "primitives": [
        {
          "attributes": {
            "NORMAL": 1,
            "POSITION": 0,
            "TEXCOORD_0": 2
          },
          "indices": 3,
          "material": 0,
          "mode": 4
        }
      ]
    },
    {
      "name": "Head_FenderAmpHead_0",
      "primitives": [
        {
          "attributes": {
            "NORMAL": 5,
            "POSITION": 4,
            "TEXCOORD_0": 6
          },
          "indices": 7,
          "material": 1,
          "mode": 4
        }
      ]
    }
  ],
  "nodes": [
    {
      "children": [
        1
      ],
      "matrix": [
        1.0,
        0.0,
        0.0,
        0.0,
        0.0,
        2.220446049250313e-16,
        -1.0,
        0.0,
        0.0,
        1.0,
        2.220446049250313e-16,
        0.0,
        0.0,
        0.0,
        0.0,
        1.0
      ],
      "name": "Sketchfab_model"
    },
    {
      "children": [
        2
      ],
      "matrix": [
        0.009999999776482582,
        0.0,
        0.0,
        0.0,
        0.0,
        0.0,
        0.009999999776482582,
        0.0,
        0.0,
        -0.009999999776482582,
        0.0,
        0.0,
        0.0,
        0.0,
        0.0,
        1.0
      ],
      "name": "BassAmp.fbx"
    },
    {
      "children": [
        3,
        5
      ],
      "name": "RootNode"
    },
    {
      "children": [
        4
      ],
      "matrix": [
        80.20832824707031,
        0.0,
        0.0,
        0.0,
        0.0,
        -9.571589292777024e-06,
        -58.74999618530196,
        0.0,
        0.0,
        97.91666412353386,
        -1.5952649442788114e-05,
        0.0,
        0.0,
        0.0,
        0.0,
        1.0
      ],
      "name": "Cab"
    },
    {
      "mesh": 0,
      "name": "Cab_FenderAmpCabinet_0"
    },
    {
      "children": [
        6
      ],
      "matrix": [
        -9.59622859954823,
        1.1751992421174928e-15,
        1.4489902057143198e-06,
        0.0,
        1.4489902057143158e-06,
        7.244951065311445e-07,
        9.596228599548203,
        0.0,
        -1.0822051813933816e-13,
        9.596228599548311,
        -7.244951044003538e-07,
        0.0,
        0.0,
        33.67140197753906,
        2.8308873176574707,
        1.0
      ],
      "name": "Head"
    },
    {
      "mesh": 1,
      "name": "Head_FenderAmpHead_0"
    }
  ],
  "samplers": [
    {
      "magFilter": 9729,
      "minFilter": 9987,
      "wrapS": 10497,
      "wrapT": 10497
    }
  ],
  "scene": 0,
  "scenes": [
    {
      "name": "Sketchfab_Scene",
      "nodes": [
        0
      ]
    }
  ],
  "textures": [
    {
      "sampler": 0,
      "source": 0
    },
    {
      "sampler": 0,
      "source": 1
    },
    {
      "sampler": 0,
      "source": 2
    },
    {
      "sampler": 0,
      "source": 3
    },
    {
      "sampler": 0,
      "source": 4
    }
  ]
}
